<svg xmlns="http://www.w3.org/2000/svg" xmlns:xlink="http://www.w3.org/1999/xlink" x="0" y="0" width="702" height="557" style="
        width:702px;
        height:557px;
        background: #FFF;
        fill: none;
">
        <svg xmlns="http://www.w3.org/2000/svg"/>
        
        <svg xmlns="http://www.w3.org/2000/svg" class="role-diagram-draw-area" style="overflow: visible;"><g class="shapes-region" style="stroke: black; fill: none;"><g class="composite-shape"><path class="real" d=" M-236,233 L347,233 L347,314.13 L-236,314.13 Z" style="stroke-width: 1px; stroke: none; stroke-opacity: 1; fill: rgb(192, 188, 188); fill-opacity: 1;"/></g><g class="composite-shape"><path class="real" d=" M87,274 C87,130.41 203.41,14 347,14 C490.59,14 607,130.41 607,274 C607,417.59 490.59,534 347,534 C203.41,534 87,417.59 87,274 Z" style="stroke-width: 1px; stroke: rgb(0, 0, 0); fill: none; fill-opacity: 1;"/></g><g class="composite-shape"><path class="real" d=" M306.88,274 C306.88,251.84 324.84,233.88 347,233.88 C369.16,233.88 387.13,251.84 387.13,274 C387.13,296.16 369.16,314.13 347,314.13 C324.84,314.13 306.88,296.16 306.88,274 Z" style="stroke-width: 1px; stroke: rgb(0, 0, 0); fill: none; fill-opacity: 1;"/></g><g class="composite-shape"><path class="real" d=" M71.5,274 C71.5,265.44 78.44,258.5 87,258.5 C95.56,258.5 102.5,265.44 102.5,274 C102.5,282.56 95.56,289.5 87,289.5 C78.44,289.5 71.5,282.56 71.5,274 Z" style="stroke-width: 1px; stroke: rgb(0, 0, 0); fill: none; fill-opacity: 1;"/></g><g/></g><g/><g/><g/></svg>
        <svg xmlns="http://www.w3.org/2000/svg" xmlns:xlink="http://www.w3.org/1999/xlink" width="700" height="555" style="width:700px;height:555px;font-family:Asana-Math, Asana;background:#FFF;"></svg>
</svg>
